<svg width="128" height="128" viewBox="0 0 128 128" fill="none" xmlns="http://www.w3.org/2000/svg">
  <defs>
    <radialGradient id="ocean" cx="0" cy="0" r="1" gradientUnits="userSpaceOnUse" gradientTransform="translate(42 34) rotate(49.7649) scale(74.7598)">
      <stop offset="0" stop-color="#7FD6FF"/>
      <stop offset="0.38" stop-color="#2A83D8"/>
      <stop offset="1" stop-color="#163C72"/>
    </radialGradient>
    <linearGradient id="land" x1="30" y1="24" x2="96" y2="94" gradientUnits="userSpaceOnUse">
      <stop stop-color="#7ED37D"/>
      <stop offset="1" stop-color="#2E8B57"/>
    </linearGradient>
    <linearGradient id="ring" x1="18" y1="64" x2="110" y2="64" gradientUnits="userSpaceOnUse">
      <stop stop-color="#C8A86B"/>
      <stop offset="0.5" stop-color="#F3DFC0"/>
      <stop offset="1" stop-color="#B88A43"/>
    </linearGradient>
  </defs>
  <circle cx="64" cy="64" r="34" fill="url(#ocean)"/>
  <circle cx="64" cy="64" r="34" fill="url(#ocean)"/>
  <path d="M45.5 39.5C50.5 35 58 34 62.5 36.5C65.5 38 67 40.5 66 43C64.5 47 58 47.5 53.5 50.5C49 53.5 47.5 58 42.5 58.5C38.5 59 34.5 56 33.5 51.5C32 45.5 39 45 45.5 39.5Z" fill="url(#land)"/>
  <path d="M72 46.5C77.5 43.5 85.5 45.5 89 51.5C93.5 59.5 91 71.5 83.5 77.5C77.5 82.5 69.5 82.5 65.5 78C61.5 73.5 64 68.5 67 63C69.5 58.5 66.5 49.5 72 46.5Z" fill="url(#land)"/>
  <path d="M49 73C53.5 70.5 59.5 72 61.5 76C64 81.5 60.5 88.5 54 91C47 93.5 38 90 36.5 84C35.5 79.5 41.5 77.5 49 73Z" fill="url(#land)"/>
  <path d="M24 64C36 55 52 50 64 50C76 50 92 55 104 64" stroke="url(#ring)" stroke-width="6" stroke-linecap="round" opacity="0.95"/>
  <path d="M28 74C42 66 54 63 64 63C74 63 86 66 100 74" stroke="url(#ring)" stroke-width="3.5" stroke-linecap="round" opacity="0.9"/>
  <circle cx="64" cy="64" r="34" stroke="#FFFFFF" stroke-opacity="0.35" stroke-width="2"/>
</svg>
